<svg width="65" height="79" viewBox="0 0 65 79" fill="none" xmlns="http://www.w3.org/2000/svg">
<path d="M17.9587 15.5278C17.2597 13.0802 15.623 11.0074 13.4043 9.7598C11.1856 8.5122 8.56414 8.19064 6.10966 8.86501C5.9553 8.90245 5.80238 8.9456 5.65122 8.99439C-1.36034 11.3316 -1.91722 20.8463 4.37153 24.3225L18.3497 32.0569C18.9151 32.3694 19.5815 32.4446 20.2023 32.2658C20.8231 32.087 21.3474 31.6689 21.66 31.1035C21.9725 30.538 22.0476 29.8716 21.8688 29.2508C21.69 28.63 21.2719 28.1057 20.7065 27.7931L6.72841 20.0588C3.96653 18.5316 4.41372 14.5575 7.17841 13.6238L7.19247 13.6181C7.25791 13.6005 7.32353 13.5837 7.38935 13.5675C9.91778 12.8644 12.5475 14.3269 13.2759 16.8722C13.3642 17.1799 13.5122 17.4671 13.7115 17.7176C13.9108 17.9681 14.1574 18.1768 14.4374 18.3319C14.7174 18.4871 15.0252 18.5855 15.3432 18.6217C15.6612 18.6579 15.9832 18.6311 16.2909 18.5428C16.5986 18.4546 16.8858 18.3065 17.1363 18.1073C17.3868 17.908 17.5955 17.6613 17.7506 17.3813C17.9058 17.1014 18.0042 16.7936 18.0404 16.4756C18.0766 16.1575 18.047 15.8355 17.9587 15.5278ZM51.54 16.8722C51.7127 16.2637 52.0043 15.6954 52.3979 15.2003C52.7916 14.7051 53.2795 14.2929 53.8334 13.9875C54.3873 13.682 54.9962 13.4894 55.625 13.4207C56.2538 13.352 56.89 13.4086 57.4968 13.5872L57.6234 13.6181L57.6431 13.6238C60.4022 14.5575 60.8493 18.5316 58.0875 20.0588L44.1093 27.7931C43.8294 27.9483 43.5827 28.157 43.3834 28.4075C43.1841 28.6579 43.0361 28.9452 42.9479 29.2528C42.8596 29.5605 42.8328 29.8825 42.869 30.2005C42.9051 30.5185 43.0036 30.8263 43.1587 31.1063C43.3138 31.3862 43.5226 31.6329 43.773 31.8322C44.0235 32.0315 44.3107 32.1795 44.6184 32.2677C44.9261 32.356 45.2481 32.3828 45.5661 32.3467C45.8841 32.3105 46.1919 32.212 46.4718 32.0569L60.45 24.3225C66.7359 20.8463 66.179 11.3316 59.1675 8.99439C59.0154 8.94555 58.8615 8.90239 58.7062 8.86501C56.2514 8.19075 53.6296 8.51269 51.4108 9.76086C49.192 11.009 47.5555 13.0825 46.8572 15.5306C46.7691 15.8383 46.7424 16.1603 46.7788 16.4783C46.8151 16.7962 46.9138 17.1039 47.069 17.3837C47.3826 17.9489 47.9078 18.3663 48.5292 18.5442C49.1505 18.7221 49.8171 18.6459 50.3823 18.3324C50.9474 18.0188 51.3649 17.4936 51.5428 16.8722H51.54ZM37.1062 43.6219V31.7531H27.7125V43.6219C27.7125 45.7031 26.7843 47.7 25.1812 49.0219L19.7812 53.5219H45.0375L39.6375 49.0219C38.8471 48.361 38.2109 47.5352 37.7736 46.6023C37.3363 45.6694 37.1085 44.6522 37.1062 43.6219Z" fill="#D3883E"/>
<path d="M32.4093 40.8938C27.2102 40.8938 22.2241 38.8284 18.5478 35.1521C14.8715 31.4758 12.8062 26.4897 12.8062 21.2906V1.99688C12.8062 0.9 13.7062 0 14.803 0H50.0436C51.1405 0 52.0405 0.9 52.0405 1.99688V21.2906C52.0405 32.1187 43.2655 40.8938 32.4093 40.8938Z" fill="#FFB02E"/>
<path d="M52.4737 53.522H11.4253C9.25967 53.522 7.4231 54.9563 7.00686 56.9532L2.46748 76.8938C2.26217 77.822 3.00185 78.6938 4.01154 78.6938H59.9184C60.9281 78.6938 61.6678 77.822 61.4625 76.8938L56.9231 56.9532C56.4787 54.9563 54.6394 53.522 52.4737 53.522Z" fill="#6D4534"/>
<path d="M40.0733 61.7625H23.8564C23.6248 61.7668 23.3964 61.8169 23.1843 61.9099C22.9721 62.0028 22.7804 62.1368 22.6202 62.3041C22.46 62.4713 22.3344 62.6686 22.2507 62.8846C22.167 63.1005 22.1267 63.3309 22.1323 63.5625V68.6531C22.1323 69.6375 22.8861 70.4531 23.8564 70.4531H40.0733C41.0155 70.4531 41.7973 69.6656 41.7973 68.6531V63.5625C41.7973 62.5781 41.0436 61.7625 40.0733 61.7625Z" fill="#FFB02E"/>
</svg>
